Coordinates
version=1
nRows=9
nColumns=63
inDegrees=yes

Units are S.I. units (second, meters, Newtons, ...)
If the header above contains a line with 'inDegrees', this indicates whether rotational values are in degrees (yes) or radians (no).

endheader
time	pelvis_tilt	pelvis_list	pelvis_rotation	pelvis_tx	pelvis_ty	pelvis_tz	hip_flexion_r	hip_adduction_r	hip_rotation_r	knee_angle_r	knee_angle_r_beta	ankle_angle_r	subtalar_angle_r	mtp_angle_r	hip_flexion_l	hip_adduction_l	hip_rotation_l	knee_angle_l	knee_angle_l_beta	ankle_angle_l	subtalar_angle_l	mtp_angle_l	L5_S1_Flex_Ext	L5_S1_Lat_Bending	L5_S1_axial_rotation	L4_L5_Flex_Ext	L4_L5_Lat_Bending	L4_L5_axial_rotation	L3_L4_Flex_Ext	L3_L4_Lat_Bending	L3_L4_axial_rotation	L2_L3_Flex_Ext	L2_L3_Lat_Bending	L2_L3_axial_rotation	L1_L2_Flex_Ext	L1_L2_Lat_Bending	L1_L2_axial_rotation	L1_T12_Flex_Ext	L1_T12_Lat_Bending	L1_T12_axial_rotation	Abs_r3	Abs_r2	Abs_r1	Abs_t1	Abs_t2	neck_flexion	neck_bending	neck_rotation	arm_flex_r	arm_add_r	arm_rot_r	elbow_flex_r	pro_sup_r	wrist_flex_r	wrist_dev_r	arm_flex_l	arm_add_l	arm_rot_l	elbow_flex_l	pro_sup_l	wrist_flex_l	wrist_dev_l
      4.46808511	    -11.05506461	    -11.05417212	     99.79439761	      0.32828531	      0.78864131	      0.78399619	      0.31550077	     -3.74415343	     -2.07603123	      0.76319972	      0.01332035	     20.99484329	     -6.66493995	      0.00000000	      3.07407675	      4.56611202	     -4.81835319	      4.38268544	      0.07649229	     21.32717348	     14.39953435	      0.00000000	     -0.35518913	     -0.91690489	     -0.57958671	     -0.65962174	     -1.21948350	     -0.61581088	     -0.58354022	     -2.22936254	     -0.61581088	     -0.40594566	     -2.22936254	     -0.50713837	     -0.32982863	     -1.86975245	     -0.47091420	     -0.20295507	     -1.42028567	     -0.43469003	     -2.53708045	    -10.37221147	     -3.22348740	      0.00000000	      0.00000000	    -20.13686481	     13.19937874	    -13.49909490	     -2.43235425	      1.53635093	     74.21063280	    149.65845437	     89.14215249	      2.69092198	     18.19427467	     -6.84944706	    -31.80333737	     59.55041650	    111.24345240	     89.19673703	     -3.73307048	     -2.24286826
      4.48936170	    -11.02554760	    -10.89852462	     99.75705121	      0.32802067	      0.78923946	      0.78633282	      0.30814530	     -3.73678418	     -1.77950853	      0.81219773	      0.01417552	     20.71014076	     -7.02016154	      0.00000000	      3.11417226	      4.54411495	     -5.18122146	      4.53024066	      0.07906762	     21.31401487	     14.67207542	      0.00000000	     -0.37246584	     -0.89145661	     -0.82225470	     -0.69170631	     -1.18563730	     -0.87364561	     -0.61192413	     -2.16748761	     -0.87364561	     -0.42569121	     -2.16748761	     -0.71947286	     -0.34587178	     -1.81785833	     -0.66808194	     -0.21282698	     -1.38086629	     -0.61669102	     -2.66048624	    -10.08433551	     -4.57313394	      0.00000000	      0.00000000	    -20.30130423	     12.30844796	    -11.94209700	     -1.06199007	      1.43458191	     72.75497338	    149.70362191	     89.36336584	      5.11544945	     18.46350369	     -8.63786948	    -31.39594084	     57.36278312	    111.08460918	     89.17721072	     -2.86044675	     -1.90479443
      4.51063830	    -10.90326870	    -10.65368571	     99.94128623	      0.32702524	      0.79001372	      0.78837586	      0.15039535	     -3.64300753	     -1.63979953	      0.87974906	      0.01535452	     20.50972753	     -7.34477794	      0.00000000	      3.08278786	      4.43581034	     -5.37274353	      4.74573409	      0.08282869	     21.47664501	     15.03979534	      0.00000000	     -0.39812357	     -0.84649385	     -1.06454005	     -0.73935529	     -1.12583682	     -1.13107381	     -0.65407722	     -2.05816515	     -1.13107381	     -0.45501543	     -2.05816515	     -0.93147255	     -0.36969755	     -1.72617026	     -0.86493879	     -0.22748781	     -1.31121898	     -0.79840504	     -2.84375688	     -9.57570775	     -5.92065241	      0.00000000	      0.00000000	    -20.45591645	     11.29246111	    -10.46171790	      0.07913865	      1.31404115	     71.45834527	    149.72841958	     89.47552807	      7.05923574	     18.65039822	     -9.91193907	    -30.83911859	     55.55450755	    110.86305238	     89.17168122	     -2.19278258	     -1.70381972
      4.53191489	    -10.72778056	    -10.35050463	    100.31806034	      0.32558186	      0.79091190	      0.78961268	     -0.15205309	     -3.48514699	     -1.71173264	      0.95864764	      0.01673156	     20.34874150	     -7.58270597	      0.00000000	      2.93425106	      4.27854325	     -5.38438944	      4.90852250	      0.08566988	     21.70268412	     15.37304993	      0.00000000	     -0.42361243	     -0.79364099	     -1.30570412	     -0.78669065	     -1.05554252	     -1.38731063	     -0.69595287	     -1.92965871	     -1.38731063	     -0.48414665	     -1.92965871	     -1.14249110	     -0.39336651	     -1.61839272	     -1.06088460	     -0.24205214	     -1.22934990	     -0.97927809	     -3.02582125	     -8.97782565	     -7.26193460	      0.00000000	      0.00000000	    -20.57471003	     10.34467362	     -9.03974918	      0.88562783	      1.14738599	     70.39820941	    149.74730347	     89.53197312	      8.56050203	     18.92179085	    -10.76940191	    -30.27795453	     53.99777672	    110.72849184	     89.18127662	     -1.84133012	     -1.54807169
      4.55319149	    -10.59932508	    -10.02411455	    100.74053380	      0.32403642	      0.79175650	      0.79016814	     -0.54890868	     -3.35945161	     -1.89868099	      1.02614192	      0.01790956	     20.23432027	     -7.72755685	      0.00000000	      2.67391300	      4.16666900	     -5.24344741	      4.97136599	      0.08676670	     21.85048329	     15.58795233	      0.00000000	     -0.44548343	     -0.74883687	     -1.54119726	     -0.82730727	     -0.99595304	     -1.63752209	     -0.73188472	     -1.82072197	     -1.63752209	     -0.50914301	     -1.82072197	     -1.34854760	     -0.41367591	     -1.52702815	     -1.25222278	     -0.25454923	     -1.15994832	     -1.15589795	     -3.18204357	     -8.47099247	     -8.57167681	      0.00000000	      0.00000000	    -20.57979399	      9.57422454	     -7.60780695	      1.52024621	      0.89744940	     69.77435823	    149.75481979	     89.54644940	      9.42323062	     19.16979154	    -11.51093064	    -29.74425268	     52.25394893	    110.80387614	     89.21096319	     -1.43060236	     -1.20851576
      4.57446809	    -10.51714274	     -9.63402467	    101.05598542	      0.32256083	      0.79254908	      0.79068515	     -1.00174181	     -3.26655931	     -2.07364204	      1.09680276	      0.01914282	     20.15250593	     -7.76196392	      0.00000000	      2.31869944	      4.09426188	     -5.06665110	      4.98555142	      0.08701429	     21.89865145	     15.62843828	      0.00000000	     -0.47224857	     -0.71138062	     -1.79590024	     -0.87701281	     -0.94613623	     -1.90814401	     -0.77585717	     -1.72965084	     -1.90814401	     -0.53973289	     -1.72965084	     -1.57141271	     -0.43853002	     -1.45064736	     -1.45916895	     -0.26984283	     -1.10192858	     -1.34692518	     -3.37322429	     -8.04727987	     -9.98825838	      0.00000000	      0.00000000	    -20.44052780	      8.84224803	     -6.00099866	      2.39181539	      0.50996105	     69.69067334	    149.74528547	     89.53004085	      9.42966561	     19.03748545	    -12.42197651	    -29.15223970	     49.99319987	    111.09147838	     89.25791912	     -0.84750563	     -0.58304916
      4.59574468	    -10.42597329	     -9.15065062	    101.24182569	      0.32123062	      0.79338742	      0.79156706	     -1.50592629	     -3.14958716	     -2.17785742	      1.15982520	      0.02024277	     20.04720570	     -7.74604942	      0.00000000	      1.88765320	      3.99786123	     -4.94942457	      4.99590050	      0.08719491	     21.92147974	     15.53543941	      0.00000000	     -0.51000607	     -0.67399513	     -2.08815652	     -0.94713228	     -0.89641352	     -2.21866630	     -0.83788898	     -1.63875176	     -2.21866630	     -0.58288594	     -1.63875176	     -1.82713695	     -0.47359164	     -1.37441087	     -1.69662717	     -0.29141747	     -1.04401846	     -1.56611739	     -3.64292237	     -7.62436772	    -11.61370011	      0.00000000	      0.00000000	    -20.28986303	      8.00661538	     -4.13976150	      3.76963335	      0.02962417	     69.87673983	    149.71456135	     89.48951956	      8.73617472	     18.48536834	    -13.43599453	    -28.47190257	     47.48636301	    111.41519761	     89.30306203	     -0.20802906	      0.26690866
      4.61702128	    -10.23120628	     -8.57113802	    101.21997074	      0.32013498	      0.79434834	      0.79251733	     -2.02984398	     -2.92020530	     -2.10691860	      1.21401441	      0.02118855	     19.89801953	     -7.68303076	      0.00000000	      1.36002016	      3.77638100	     -5.03611185	      4.97938917	      0.08690674	     21.97163543	     15.42529544	      0.00000000	     -0.55714737	     -0.62376627	     -2.34331625	     -1.03467837	     -0.82960914	     -2.48977352	     -0.91533741	     -1.51662532	     -2.48977352	     -0.63676372	     -1.51662532	     -2.05040172	     -0.51736704	     -1.27198418	     -1.90394446	     -0.31835400	     -0.96621396	     -1.75748719	     -3.97964791	     -7.05616883	    -13.03282201	      0.00000000	      0.00000000	    -20.11074592	      7.09544067	     -2.34617416	      5.38137941	     -0.48878064	     69.75368178	    149.66119422	     89.42936023	      8.25291559	     18.02902788	    -14.08768443	    -27.82884962	     45.58513833	    111.51948076	     89.31640753	     -0.19749829	      0.99861555
      4.63829787	    -10.06123786	     -8.14660964	    101.60044463	      0.31839949	      0.79510063	      0.79330622	     -2.49745726	     -2.72521060	     -2.36921067	      1.15627410	      0.02018079	     19.76808955	     -7.84371007	      0.00000000	      1.00594735	      3.61625831	     -4.81034453	      5.00519052	      0.08735705	     22.04392583	     15.43759650	      0.00000000	     -0.58092519	     -0.58091166	     -2.71301273	     -1.07883618	     -0.77261250	     -2.88257602	     -0.95440200	     -1.41242860	     -2.88257602	     -0.66393940	     -1.41242860	     -2.37388614	     -0.53944713	     -1.18459505	     -2.20432284	     -0.33194066	     -0.89983216	     -2.03475954	     -4.14949056	     -6.57138885	    -15.08896288	      0.00000000	      0.00000000	    -19.98703631	      6.38625155	     -0.22228400	      7.02447170	     -0.98581545	     69.99875774	    149.56895735	     89.34600282	      7.36540195	     17.85078260	    -15.17015377	    -27.05196783	     43.24569756	    111.69243555	     89.31950521	      0.56922057	      2.29564237
